<svg xmlns="http://www.w3.org/2000/svg" viewBox="0 0 393.97 105.48"><path d="M57.76 89.05a1.85 1.85 0 1 0 1.85 1.86 1.82 1.82 0 0 0-1.85-1.86m28.45 13.72c-.9 0-1.61-.49-1.61-1.83V97h3.9v-2.57h-3.9v-3.2h-2.9v3.2h-2.07V97h2.07v4.16c0 2.78 1.37 4.29 4 4.29a6 6 0 0 0 3.56-1.13l-1.06-2.26a4.26 4.26 0 0 1-2 .7m12.26-8.63c-3.22 0-5.44 2.31-5.44 5.7a5.32 5.32 0 0 0 5.59 5.62 6.52 6.52 0 0 0 4.58-1.63L101.5 102a4.39 4.39 0 0 1-2.72 1 2.6 2.6 0 0 1-2.78-2.23h7.62a7.15 7.15 0 0 0 .06-1c0-3.35-2.13-5.65-5.23-5.65M96 98.79a2.39 2.39 0 0 1 4.76 0zm-25.1-4.65a3.59 3.59 0 0 0-3.16 1.56v-1.27h-2.82v10.76h2.9v-5.9a2.2 2.2 0 0 1 2.27-2.43c1.32 0 2.1.86 2.1 2.41v5.92h2.9v-6.85a4 4 0 0 0-4.19-4.2m-14.57 11h2.89V94.43h-2.89zm58.37-11a3.6 3.6 0 0 0-3.17 1.56v-1.27h-2.82v10.76h2.9v-5.9a2.2 2.2 0 0 1 2.28-2.43c1.32 0 2.09.86 2.09 2.41v5.92h2.9v-6.85a4 4 0 0 0-4.18-4.2M47.29 100L39.4 89.6h-2.9v15.54h3.1V94.76l7.88 10.38h2.92V89.6h-3.11zm246.43-5.84a3.59 3.59 0 0 0-3.16 1.56v-1.29h-2.82v10.76h2.9v-5.9a2.2 2.2 0 0 1 2.27-2.43c1.32 0 2.1.86 2.1 2.41v5.92h2.9v-6.85a4 4 0 0 0-4.19-4.2m9.79 11h2.9v-16h-2.9zm-29.13-15.78a8.06 8.06 0 1 0 8.18 8.06 7.82 7.82 0 0 0-8.18-8.06m0 13.14a5.09 5.09 0 1 1 4.93-5.08 4.8 4.8 0 0 1-4.93 5.08m37.72 2.69h2.9V94.43h-2.9zm1.44-16.14a1.85 1.85 0 1 0 1.85 1.86 1.83 1.83 0 0 0-1.85-1.86m-66.08 5.09a3.63 3.63 0 0 0-3.09 1.44v-6.39h-2.9v16h2.9v-5.9a2.2 2.2 0 0 1 2.28-2.43c1.32 0 2.1.86 2.1 2.41v5.92h2.89v-6.85a4 4 0 0 0-4.18-4.2m93.78 0c-3.22 0-5.44 2.31-5.44 5.7a5.32 5.32 0 0 0 5.58 5.62 6.54 6.54 0 0 0 4.59-1.63l-1.7-1.86a4.39 4.39 0 0 1-2.72 1 2.6 2.6 0 0 1-2.76-2.23h7.62a7.15 7.15 0 0 0 .06-1c0-3.35-2.13-5.65-5.23-5.65m-2.44 4.65a2.39 2.39 0 0 1 4.76 0zm-12.12-4.65a3.58 3.58 0 0 0-3.16 1.56v-1.22h-2.82v10.76h2.9v-5.9a2.2 2.2 0 0 1 2.27-2.43c1.32 0 2.1.86 2.1 2.41v5.92h2.9v-6.85a4 4 0 0 0-4.19-4.2m-94.35 8.63a3 3 0 0 1 0-5.93 3 3 0 0 1 2.3 1.08l2.09-1.75a5.26 5.26 0 0 0-4.31-2 5.66 5.66 0 1 0 0 11.32 5.29 5.29 0 0 0 4.32-2l-2.07-1.76a3.17 3.17 0 0 1-2.34 1.09m-100.14-7.27a3.9 3.9 0 0 0-3.18-1.41c-3 0-5.2 2.43-5.2 5.66s2.24 5.66 5.2 5.66a4 4 0 0 0 3.22-1.46v1.19h2.83v-16h-2.89zm-2.63 7.22a3 3 0 1 1 2.78-3 2.77 2.77 0 0 1-2.78 3m44.16-6.72l-.87-.14c-1.87-.31-3.21-.66-3.21-1.8s1.23-1.87 3-1.87a8.4 8.4 0 0 1 4.37 1.32l1.48-2.56a11 11 0 0 0-5.94-1.65c-3.31 0-6.2 1.69-6.2 4.93 0 2.81 2 4 4.74 4.45l1 .16c2.17.34 3.3.74 3.3 1.81s-1.33 1.88-3.05 1.88a8.25 8.25 0 0 1-4.95-1.67l-1.61 2.49a10.74 10.74 0 0 0 6.55 2c3.34 0 6.36-1.63 6.36-5.06 0-2.71-2.18-3.89-5-4.35m-27.78-1.85a5.66 5.66 0 1 0 5.83 5.66 5.59 5.59 0 0 0-5.83-5.66m0 8.63a3 3 0 1 1 2.86-3 2.81 2.81 0 0 1-2.86 3M196 102l-2.45-7.55h-3l-2.41 7.51-2.3-7.51h-3.08l3.64 10.76h3.28l2.32-7.29 2.39 7.27h3.3l3.64-10.76h-3zm23.91.79c-.9 0-1.61-.49-1.61-1.83V97h3.89v-2.57h-3.89v-3.2h-2.9v3.2h-2.07V97h2.07v4.16c0 2.78 1.37 4.29 4 4.29a6 6 0 0 0 3.56-1.13l-1.06-2.26a4.26 4.26 0 0 1-2 .7m-14.11 2.42h2.89V94.43h-2.89zm1.43-16.14a1.85 1.85 0 1 0 1.78 1.87 1.83 1.83 0 0 0-1.85-1.86M383 78.3H0V75h383zM33.5 47.8a4.12 4.12 0 0 1 4.5 4.71V62h-4.5v-9.49a1.11 1.11 0 0 0-1.1-1.1h-7.82a1.12 1.12 0 0 0-1.11 1.1V62H19V47.8h14.5m125.63 0a4.11 4.11 0 0 1 4.51 4.71V62h-4.51v-9.49a1.11 1.11 0 0 0-1.11-1.1h-7.81a1.1 1.1 0 0 0-1 1.1V62h-4.61V47.8h14.54m68.48 0a4.12 4.12 0 0 1 4.51 4.71V62h-4.51v-9.49a1.11 1.11 0 0 0-1.1-1.1h-7.83a1.11 1.11 0 0 0-1.1 1.1V62h-4.51V47.8h14.54M40 47.8h17v3.61h-5a1.11 1.11 0 0 0-1.1 1.1V62h-4.77v-9.49a1.18 1.18 0 0 0-1.1-1.1H40zm211.15 0v3.61h-5a1 1 0 0 0-1 1.1V62h-5v-9.49a1.11 1.11 0 0 0-1.1-1.1h-5V47.8zm-153.9 0h17.24v3.61h-5a1.11 1.11 0 0 0-1.1 1.1V62h-5v-9.49a1.11 1.11 0 0 0-1.1-1.1h-5zm39.5 0h4.81V62h-4.81zm-7.82 0H121a4.31 4.31 0 0 0-4.71 4.71V62h4.61v-3.58h8.12V62h4.61v-9.49s.6-4.71-4.71-4.71m.1 7h-8.12v-2.5a1.18 1.18 0 0 1 .9-.9h6.11a1 1 0 0 1 1.11.9v2.5zm-38.3-7h-12.8V62h4.71v-2.7a.88.88 0 0 1 1-.91H90a1.2 1.2 0 0 1 .9.91V62h4.51v-2.2a3.45 3.45 0 0 0-1.7-3.41 5 5 0 0 0 2-3.41 2.92 2.92 0 0 0 .11-.7 4.59 4.59 0 0 0-5-4.51m.1 5.91c0 .7-.3 1.1-.9 1.1h-6.69c-.3 0-.7-.4-.7-1.1v-1.4a1 1 0 0 1 1-1.1H90c.6 0 .9.3.9 1.1v1.4zM0 47.8h16v3.61H5.33a1.1 1.1 0 1 0 0 2.2h10v2.51h-9.8c-.8 0-1.3.4-1.3 1.1a1.3 1.3 0 0 0 1.3 1.2H16V62H4.73C-.49 62 0 57.32 0 57.32zm59.16 0h15.75v3.61H64.48a1.12 1.12 0 1 0 0 2.2h9.83v2.51h-9.83a1.16 1.16 0 0 0-1.3 1.1 1.31 1.31 0 0 0 1.3 1.2h10.43V62H63.68c-5.21 0-4.51-4.71-4.51-4.71zm135.15 0h15.94v3.61h-10.62a1.1 1.1 0 1 0 0 2.2h9.83v2.51h-9.83a1 1 0 0 0-1.1 1.1 1.29 1.29 0 0 0 1.2 1.2h10.53V62h-11.33a4.21 4.21 0 0 1-4.61-4.71zm-7.48 0c5.31 0 4.7 4.71 4.7 4.71v9.53H187l-.19-9.53a1.1 1.1 0 0 0-.91-1.1h-3.61a1 1 0 0 0-1.1 1.1v9.53h-4.69v-9.51a1.11 1.11 0 0 0-1.1-1.1H172a1.11 1.11 0 0 0-1.1 1.1v9.53h-4.21V47.82h20.16m133.44 0h17.15v3.58h-5c-.6 0-.9.5-.9 1.1l-.2 9.53h-5V52.5a1.1 1.1 0 0 0-.89-1.1h-5.12zm-20.65 5.32s.7 4.7-4.51 4.7h-1.7V62h-5v-4.19h-1.5a4.31 4.31 0 0 1-4.74-4.81v-5.21h4.5v5.32a1.12 1.12 0 0 0 1.11 1.1h6.41a1.18 1.18 0 0 0 1.11-1.1v-5.32h4.31zm39.7-5.31h15.74v3.6h-10.44a1.24 1.24 0 0 0-1.3 1.1 1.32 1.32 0 0 0 1.3 1.21h9.83v2.5h-9.83c-.69 0-1.3.3-1.3 1a1.25 1.25 0 0 0 1.3 1.2h10.43V62h-11.22c-5.22 0-4.52-4.72-4.52-4.72zm-25.26 5.81c2.5 0 4.81 1.4 4.81 4.31a4.31 4.31 0 0 1-4.32 4.05h-12.83v-3.58h11.73a1.21 1.21 0 0 0 1.1-1.2c0-.71-.7-1-1.41-1h-6.71c-2.71 0-4.71-1.2-4.71-4.31a4.3 4.3 0 0 1 4.31-4.1h12.53v3.6h-11.43a1.2 1.2 0 0 0-1.1 1.2c0 .7.5 1 1.3 1h6.72m-38.2 0c2.71 0 4.91 1.4 4.91 4.31a4.26 4.26 0 0 1-4.41 4.08h-12.83v-3.58h11.63a1.3 1.3 0 0 0 1.2-1.2c0-.71-.6-1-1.4-1h-6.52c-2.71 0-4.91-1.2-4.91-4.31a4.35 4.35 0 0 1 4.51-4.1h12.53v3.6h-11.43a1.29 1.29 0 0 0-1.2 1.2c0 .7.6 1 1.4 1h6.52M25.59 0h10.65v34.48H25.61l-14.94-24v24H0V0h10.74L25.6 24zm79 11.59v22.89H94.17V11.6h-5.62V8.2h5.63V3.55h10.37v4.64h5.61v3.41zm-62.37 0h10.32v22.89H42.18zM42.15 0h10.39v7H42.15zm181.67 10c-8.37 0-15.15 5.76-15.15 12.87s6.78 12.87 15.15 12.87S239 30 239 22.86 232.18 10 223.82 10zM228 27.68c0 3.66-2.16 5.16-4.23 5.16s-4.25-1.5-4.25-5.16v-4.94-4.78c0-3.63 2.17-5.13 4.23-5.13S228 14.33 228 18v9.68zM195.06 0v12.69a13.69 13.69 0 0 0-5.86-2c-7.47-.69-13.2 5.9-13.2 11.96A12.23 12.23 0 0 0 183.11 34a12.47 12.47 0 0 0 11.89-.85v1.32h10.25V0zm-4 31.42c-1.65 0-4.07-.92-4.07-4.46V18.8c0-3.54 2.42-4.45 4.07-4.45s4 .91 4 4.45V27c.08 3.51-2.37 4.43-3.98 4.43zM88.49 22v12.47h-10.3v-15a4.59 4.59 0 0 0-4.74-4.22c-2.82 0-4.92 2.22-4.92 4.22v15H58.25V11.55h10.29v2.42a12.42 12.42 0 0 1 8.27-3.46c3.87-.12 11.74 2.41 11.68 11.49zm84.23 0v12.47h-10.3v-15a4.58 4.58 0 0 0-4.73-4.22c-2.83 0-4.92 2.22-4.92 4.22v15h-10.28V11.55h10.29v2.42A12.4 12.4 0 0 1 161 10.5c3.92-.11 11.78 2.42 11.72 11.5zm-44.28 5.85c0 4.19-2.76 5.12-4.29 5.12s-4.34-.93-4.34-5.12v-4.73h19.53c0-7.1-6.87-13-15.29-13S108.79 15.88 108.79 23s6.84 12.87 15.27 12.87c7 0 12.9-4 14.7-9.4h-10.33s.01.09.01 1.38zm-7.94-12.8a4.22 4.22 0 0 1 7.29 0c.66 1.14.69 2.49.68 4.49h-8.65c-.02-2 .02-3.35.68-4.49zM383 52.5V62h-4.51l-.21-9.53a1.1 1.1 0 0 0-.9-1.1h-3.61a1 1 0 0 0-1.1 1.1V62h-4.71v-9.5a1.11 1.11 0 0 0-1.1-1.1h-3.42a1.11 1.11 0 0 0-1.1 1.1V62h-4.2V47.79h20.14c5.27 0 4.72 4.71 4.72 4.71zm5.68-4.71v.59H387v4.36h-.68v-4.36h-1.67v-.59zm.6 0h1l1.33 4.21 1.39-4.21h1v5h-.64v-2.97-.5-.75l-1.41 4.17h-.67l-1.42-4.17v4.17h-.64z" fill="#3c3c3c" data-name="Layer 2"/></svg>